<?xml version="1.0" encoding="UTF-8"?>
<svg id="Capa_2" data-name="Capa 2" xmlns="http://www.w3.org/2000/svg" viewBox="0 0 477.82 85.55">
  <g id="Capa_1-2" data-name="Capa 1">
    <g>
      <path d="M104.92,55.21c3.96,2.17,8.59,3.26,13.88,3.26,2.66,0,5.19-.43,7.6-1.29,2.41-.86,4.62-1.91,6.63-3.17,2.01-1.25,3.74-2.48,5.18-3.67v-4.96h-1.9c-1.57,1.29-3.11,2.48-4.62,3.58-1.52,1.09-3.13,1.97-4.85,2.65-1.71.67-3.65,1.01-5.81,1.01-6.48,0-11.44-1.98-14.87-5.94-3.43-3.96-5.14-9.83-5.14-17.61,0-7.35,1.6-12.82,4.81-16.41,3.21-3.59,7.35-5.38,12.45-5.38,2.14,0,4.11.22,5.92.65s3.5,1.05,5.07,1.84c.42.2.82.44,1.19.71.37.27.6.61.67,1.01l1.45,7.64h4.36V5.48c-1.44-.37-3.22-.77-5.35-1.19s-4.3-.79-6.54-1.1c-2.24-.31-4.27-.47-6.11-.47-5.09,0-9.64,1.15-13.64,3.45-4,2.3-7.15,5.55-9.45,9.75-2.3,4.2-3.45,9.13-3.45,14.79s1.09,10.87,3.28,15.02c2.18,4.15,5.26,7.31,9.22,9.48Z"/>
      <path d="M175.88,57.32h19.75v-2.8l-3.95-1.57c-.4-.15-.75-.43-1.06-.84-.31-.41-.55-.81-.73-1.21L171.08,3.06h-4.21l-4.4,8.91-15.17,38.83c-.35.95-.98,1.63-1.9,2.05l-3.8,1.68v2.8h16.73v-2.8l-6.34-2.35,5.13-13.6h19.63l5.38,13.79-6.26,2.16v2.8ZM159.08,33.39l7.63-20.23h.63l1.45,5.03,5.93,15.2h-15.65Z"/>
      <path d="M236.36,50.29c1.42-2.45,2.12-5.02,2.12-7.73s-.49-4.79-1.47-6.54c-.98-1.75-2.24-3.18-3.76-4.3-1.53-1.12-3.12-2.02-4.79-2.72-2.26-.94-4.35-1.74-6.26-2.38-1.91-.65-3.86-1.33-5.85-2.05-3.01-1.12-5.04-2.52-6.09-4.19-1.06-1.68-1.59-3.48-1.59-5.42,0-2.16.98-3.99,2.93-5.48,1.95-1.49,4.69-2.24,8.22-2.24,1.17,0,2.26.11,3.28.33,1.02.23,1.94.52,2.78.88.83.36,1.53.75,2.11,1.17.3.2.63.47,1.01.8.37.33.6.68.67,1.02l1.49,7.3h4.36V5.08c-1.52-.37-3.11-.75-4.79-1.12-1.68-.37-3.44-.68-5.29-.93-1.85-.25-3.8-.37-5.83-.37-3.38,0-6.43.65-9.17,1.96-2.73,1.3-4.9,3.08-6.5,5.33-1.6,2.25-2.4,4.81-2.4,7.69,0,3.21.86,5.94,2.57,8.2,1.72,2.26,4.08,4.01,7.08,5.25,1.99.82,4.02,1.55,6.09,2.18,2.08.63,4.18,1.4,6.32,2.29,2.21.92,3.97,2.1,5.29,3.54s1.97,3.27,1.97,5.48c0,2.93-1.11,5.24-3.32,6.93-2.21,1.69-5.25,2.53-9.13,2.53-1.32,0-2.6-.17-3.86-.5-1.25-.33-2.44-.77-3.56-1.32-1.12-.55-2.15-1.12-3.09-1.72-.27-.2-.6-.47-.99-.82-.38-.35-.61-.69-.69-1.04l-1.57-7.71h-4.4l.23,14.27c1.94.52,3.9,1.04,5.89,1.57,1.99.52,3.94.96,5.85,1.31,1.91.35,3.73.52,5.44.52,4.94,0,8.94-.77,12-2.31,3.05-1.54,5.29-3.53,6.71-5.98Z"/>
      <path d="M285.29,51.36c-.08.45-.25.8-.54,1.04-.29.25-.62.37-.99.37h-21.95v-20.98h11.44c.5,0,.86.12,1.1.35.24.24.4.59.51,1.06l1.34,5.85h3.58v-19.04h-3.58l-1.34,5.89c-.1.47-.27.81-.51,1.02-.24.21-.6.32-1.1.32h-11.44V8.43h19.04c.42,0,.77.12,1.04.35.27.24.46.58.56,1.02l1.45,7.34h4.4V3.88h-41.47v2.72l5.74,1.9c.4.12.73.32,1.01.6.27.27.41.67.41,1.19v40.54c0,.55-.13.96-.39,1.25-.26.29-.6.49-1.02.62l-5.74,1.82v2.8h44.31v-14.16h-4.36l-1.49,8.2Z"/>
      <path d="M351.82,52.08c-.28.29-.64.49-1.06.62l-5.66,1.82v2.8h22.06v-2.8l-5.66-1.82c-.45-.15-.81-.36-1.08-.63-.27-.27-.41-.68-.41-1.23V10.29c0-.49.15-.89.45-1.17.3-.29.65-.49,1.04-.61l5.66-1.9v-2.72h-18.93l-14.42,41.77h-.6l-1.86-6.49-12.48-35.29h-19.19v2.72l5.74,1.9c.42.12.76.32,1.02.6.26.27.39.67.39,1.19v40.32c0,.52-.14.93-.41,1.21-.27.29-.61.49-1.01.61l-5.74,2.09v2.8h19.27v-2.8l-5.63-2.09c-.4-.15-.73-.35-1.01-.61-.27-.26-.41-.67-.41-1.21V7.94h.6l1.72,5.55,15.54,43.82h3.8l3.54-8.27,12.7-35.58,1.75-5.52h.71v42.89c0,.55-.15.96-.43,1.25Z"/>
      <path d="M419.73,43.16h-4.36l-1.49,8.2c-.08.45-.26.8-.54,1.04-.29.25-.61.37-.99.37h-21.95v-20.98h11.44c.49,0,.86.12,1.1.35s.4.59.5,1.06l1.34,5.85h3.58v-19.04h-3.58l-1.34,5.89c-.1.47-.27.81-.5,1.02-.24.21-.6.32-1.1.32h-11.44V8.43h19.04c.42,0,.77.12,1.04.35.27.24.46.58.56,1.02l1.45,7.34h4.4V3.88h-41.47v2.72l5.74,1.9c.4.12.73.32,1.01.6.27.27.41.67.41,1.19v40.54c0,.55-.13.96-.39,1.25-.26.29-.6.49-1.03.62l-5.74,1.82v2.8h44.31v-14.16Z"/>
      <path d="M442.35,54.52l-4.81-2.31,12.78-17.85h.22l2.35,4.29,9.32,13.71-5.03,2.16v2.8h19.97v-2.8l-4.32-1.53c-.4-.12-.8-.37-1.19-.75-.4-.37-.76-.8-1.08-1.27l-14.76-21.61,14.27-19.15c.35-.47.75-.9,1.19-1.29.45-.38.84-.64,1.19-.76l4.14-1.57v-2.72h-16.51v2.72l4.81,2.39-12.22,17.29h-.22l-2.31-4.4-8.98-13.08,4.99-2.2v-2.72h-20.01v2.72l4.4,1.57c.42.15.84.41,1.25.78.41.37.75.77,1.02,1.19l14.35,21.09-14.8,19.67c-.32.42-.69.85-1.12,1.27-.42.42-.86.71-1.3.86l-4.47,1.49v2.8h16.88v-2.8Z"/>
      <path d="M99.01,80c-.48.24-1.05.37-1.71.37-.53,0-1.03-.1-1.49-.31-.46-.21-.85-.49-1.19-.85-.34-.36-.6-.78-.79-1.27-.19-.49-.28-1.01-.28-1.57s.09-1.08.28-1.57c.19-.48.45-.9.79-1.26.34-.36.73-.64,1.19-.84.46-.2.95-.3,1.49-.3.66,0,1.23.12,1.71.37.47.25.92.57,1.33.95l.75-.8c-.24-.23-.49-.44-.75-.63-.26-.19-.54-.35-.84-.48-.3-.13-.63-.24-.99-.31-.35-.07-.75-.11-1.2-.11-.71,0-1.36.13-1.96.39-.6.26-1.11.62-1.55,1.08-.43.46-.77.99-1.02,1.6-.24.61-.37,1.26-.37,1.95s.12,1.35.37,1.96c.24.61.58,1.14,1.02,1.58.43.45.94.8,1.53,1.06.59.26,1.23.39,1.93.39.44,0,.84-.04,1.2-.12.36-.08.7-.2,1.01-.35.31-.15.61-.32.88-.53.27-.21.53-.44.78-.7l-.72-.7c-.46.44-.93.79-1.41,1.03Z"/>
      <path d="M106.62,71.47l-4.41,9.74h1.12l1.15-2.56h5.26l1.13,2.56h1.17l-4.41-9.74h-1.02ZM104.91,77.69l2.21-4.93,2.2,4.93h-4.41Z"/>
      <polygon points="113.96 81.21 115.05 81.21 115.05 77 120.28 77 120.28 76 115.05 76 115.05 72.55 120.91 72.55 120.91 71.54 113.96 71.54 113.96 81.21"/>
      <polygon points="126.61 70.68 128.17 69.19 127.07 68.68 125.76 70.68 126.61 70.68"/>
      <polygon points="124.11 76.83 129.39 76.83 129.39 75.84 124.11 75.84 124.11 72.53 130.01 72.53 130.01 71.54 123.02 71.54 123.02 81.21 130.08 81.21 130.08 80.22 124.11 80.22 124.11 76.83"/>
      <path d="M135.74,75.84c-.53-.11-.97-.23-1.31-.35-.34-.12-.61-.26-.8-.42-.19-.15-.33-.32-.4-.51-.07-.18-.11-.39-.11-.62s.05-.43.15-.62.23-.36.41-.5c.18-.14.4-.25.65-.33.25-.08.54-.12.85-.12.5,0,.97.08,1.43.25.46.17.91.43,1.36.8l.64-.84c-.5-.39-1.01-.69-1.54-.88-.53-.2-1.15-.29-1.86-.29-.46,0-.88.07-1.27.2-.39.13-.72.32-1.01.55s-.51.51-.66.84c-.16.32-.23.68-.23,1.07s.06.76.19,1.05c.13.3.33.55.6.77.27.22.61.41,1.02.57.41.16.89.3,1.45.42.51.11.93.23,1.25.35.33.12.58.25.77.4.18.15.31.31.39.49.07.18.11.39.11.62,0,.5-.2.9-.59,1.2-.39.3-.91.46-1.57.46s-1.27-.11-1.78-.34c-.52-.23-1.03-.57-1.53-1.03l-.68.8c.58.52,1.19.91,1.83,1.16.64.25,1.35.37,2.12.37.48,0,.92-.06,1.33-.19.41-.13.75-.31,1.04-.55.29-.24.51-.53.68-.87.16-.34.25-.72.25-1.14,0-.75-.26-1.33-.77-1.76-.51-.42-1.31-.76-2.38-1Z"/>
      <polygon points="148.85 76.38 145.6 71.54 144.27 71.54 148.29 77.38 148.29 81.21 149.38 81.21 149.38 77.37 153.4 71.54 152.13 71.54 148.85 76.38"/>
      <path d="M162.77,75.84c-.53-.11-.97-.23-1.31-.35-.34-.12-.61-.26-.8-.42-.19-.15-.33-.32-.4-.51-.07-.18-.11-.39-.11-.62s.05-.43.15-.62c.1-.19.23-.36.41-.5.18-.14.4-.25.65-.33.25-.08.54-.12.85-.12.5,0,.97.08,1.43.25.46.17.91.43,1.36.8l.64-.84c-.5-.39-1.01-.69-1.54-.88-.53-.2-1.15-.29-1.86-.29-.46,0-.88.07-1.27.2-.39.13-.72.32-1.01.55-.29.24-.51.51-.66.84-.16.32-.23.68-.23,1.07s.06.76.19,1.05c.13.3.33.55.6.77.27.22.61.41,1.02.57.41.16.89.3,1.45.42.51.11.93.23,1.25.35.33.12.58.25.77.4.18.15.31.31.39.49.07.18.11.39.11.62,0,.5-.2.9-.59,1.2-.39.3-.91.46-1.57.46s-1.27-.11-1.78-.34c-.52-.23-1.03-.57-1.53-1.03l-.68.8c.58.52,1.19.91,1.83,1.16.64.25,1.35.37,2.12.37.48,0,.92-.06,1.33-.19.41-.13.75-.31,1.04-.55.29-.24.51-.53.68-.87.16-.34.25-.72.25-1.14,0-.75-.26-1.33-.77-1.76-.51-.42-1.31-.76-2.38-1Z"/>
      <polygon points="169.24 76.83 174.51 76.83 174.51 75.84 169.24 75.84 169.24 72.53 175.14 72.53 175.14 71.54 168.14 71.54 168.14 81.21 175.21 81.21 175.21 80.22 169.24 80.22 169.24 76.83"/>
      <polygon points="182.03 76.82 178.51 71.54 177.4 71.54 177.4 81.21 178.47 81.21 178.47 73.39 181.99 78.56 182.04 78.56 185.57 73.38 185.57 81.21 186.66 81.21 186.66 71.54 185.55 71.54 182.03 76.82"/>
      <rect x="189.49" y="71.54" width="1.09" height="9.67"/>
      <polygon points="194.51 71.54 193.42 71.54 193.42 81.21 199.95 81.21 199.95 80.2 194.51 80.2 194.51 71.54"/>
      <polygon points="203.06 71.54 201.97 71.54 201.97 81.21 208.5 81.21 208.5 80.2 203.06 80.2 203.06 71.54"/>
      <path d="M214.1,71.47l-4.41,9.74h1.12l1.15-2.56h5.26l1.13,2.56h1.17l-4.41-9.74h-1.02ZM212.39,77.69l2.21-4.93,2.2,4.93h-4.41Z"/>
      <path d="M224.71,75.84c-.53-.11-.97-.23-1.31-.35-.34-.12-.61-.26-.8-.42-.19-.15-.33-.32-.4-.51-.07-.18-.11-.39-.11-.62s.05-.43.15-.62c.1-.19.23-.36.41-.5.18-.14.4-.25.65-.33.25-.08.54-.12.85-.12.5,0,.97.08,1.43.25.46.17.91.43,1.36.8l.64-.84c-.5-.39-1.01-.69-1.54-.88-.53-.2-1.15-.29-1.86-.29-.46,0-.88.07-1.27.2-.39.13-.72.32-1.01.55-.29.24-.51.51-.66.84-.16.32-.23.68-.23,1.07s.06.76.19,1.05c.13.3.33.55.6.77.27.22.61.41,1.02.57.41.16.89.3,1.45.42.51.11.93.23,1.25.35.33.12.58.25.77.4.18.15.31.31.39.49.07.18.11.39.11.62,0,.5-.2.9-.59,1.2-.39.3-.91.46-1.57.46s-1.27-.11-1.78-.34c-.52-.23-1.03-.57-1.53-1.03l-.68.8c.58.52,1.19.91,1.83,1.16.64.25,1.35.37,2.12.37.48,0,.92-.06,1.33-.19.41-.13.75-.31,1.04-.55.29-.24.51-.53.68-.87.16-.34.25-.72.25-1.14,0-.75-.26-1.33-.77-1.76-.51-.42-1.31-.76-2.38-1Z"/>
      <path d="M241.3,72.92c-.46-.43-1-.77-1.63-1.02-.63-.24-1.32-.37-2.08-.37h-3.36v9.67h3.36c.76,0,1.45-.12,2.08-.37.63-.25,1.17-.59,1.63-1.02s.81-.95,1.06-1.54c.25-.59.37-1.23.37-1.91s-.12-1.32-.37-1.91c-.25-.59-.6-1.1-1.06-1.53ZM241.31,77.89c-.19.46-.46.86-.8,1.21-.35.35-.77.61-1.26.81-.5.19-1.05.29-1.66.29h-2.27v-7.65h2.27c.61,0,1.16.1,1.66.3.5.2.92.47,1.26.82s.61.75.8,1.22c.19.47.28.97.28,1.51s-.09,1.05-.28,1.51Z"/>
      <polygon points="246.13 76.83 251.41 76.83 251.41 75.84 246.13 75.84 246.13 72.53 252.03 72.53 252.03 71.54 245.04 71.54 245.04 81.21 252.1 81.21 252.1 80.22 246.13 80.22 246.13 76.83"/>
      <polygon points="263.07 76.82 259.54 71.54 258.44 71.54 258.44 81.21 259.5 81.21 259.5 73.39 263.03 78.56 263.08 78.56 266.6 73.38 266.6 81.21 267.7 81.21 267.7 71.54 266.59 71.54 263.07 76.82"/>
      <polygon points="274.48 68.68 273.17 70.68 274.02 70.68 275.59 69.19 274.48 68.68"/>
      <polygon points="271.52 76.83 276.8 76.83 276.8 75.84 271.52 75.84 271.52 72.53 277.42 72.53 277.42 71.54 270.43 71.54 270.43 81.21 277.49 81.21 277.49 80.22 271.52 80.22 271.52 76.83"/>
      <polygon points="287.56 71.54 286.29 71.54 283.35 75.49 280.38 71.54 279.09 71.54 282.67 76.28 278.96 81.21 280.21 81.21 283.31 77.05 286.4 81.21 287.7 81.21 283.99 76.26 287.56 71.54"/>
      <rect x="289.8" y="71.54" width="1.09" height="9.67"/>
      <path d="M299.89,80c-.48.24-1.05.37-1.71.37-.53,0-1.03-.1-1.49-.31-.46-.21-.85-.49-1.19-.85s-.6-.78-.79-1.27c-.19-.49-.28-1.01-.28-1.57s.09-1.08.28-1.57c.19-.48.45-.9.79-1.26.34-.36.73-.64,1.19-.84.46-.2.95-.3,1.49-.3.66,0,1.23.12,1.71.37.47.25.92.57,1.33.95l.75-.8c-.24-.23-.49-.44-.75-.63-.26-.19-.54-.35-.84-.48-.3-.13-.63-.24-.99-.31-.35-.07-.75-.11-1.2-.11-.71,0-1.36.13-1.96.39-.6.26-1.11.62-1.55,1.08-.43.46-.77.99-1.02,1.6-.24.61-.37,1.26-.37,1.95s.12,1.35.37,1.96c.24.61.58,1.14,1.02,1.58.43.45.94.8,1.53,1.06.59.26,1.23.39,1.93.39.44,0,.84-.04,1.2-.12.36-.08.7-.2,1.01-.35.31-.15.61-.32.88-.53.27-.21.53-.44.78-.7l-.72-.7c-.46.44-.93.79-1.41,1.03Z"/>
      <path d="M311.73,72.86c-.43-.46-.95-.82-1.55-1.08-.6-.27-1.27-.4-2.01-.4s-1.41.14-2.02.41c-.61.27-1.13.64-1.56,1.1-.43.46-.77.99-1.01,1.6-.24.6-.36,1.24-.36,1.91s.12,1.31.35,1.91.57,1.13,1,1.59.95.82,1.55,1.08c.6.27,1.27.4,2.01.4s1.41-.14,2.02-.41c.61-.27,1.13-.64,1.56-1.1.43-.46.77-.99,1.01-1.6.24-.6.36-1.24.36-1.91s-.12-1.31-.35-1.91c-.23-.6-.57-1.13-1-1.59ZM311.67,77.94c-.19.48-.45.9-.78,1.26-.33.36-.73.64-1.2.85-.47.21-.97.31-1.53.31s-1.06-.11-1.53-.32c-.47-.21-.87-.5-1.21-.86s-.61-.78-.79-1.27c-.19-.49-.28-1.01-.28-1.56s.09-1.07.28-1.55c.19-.48.45-.9.78-1.26.33-.36.73-.64,1.2-.85.47-.21.97-.31,1.53-.31s1.06.11,1.53.32c.47.21.87.5,1.21.86s.61.78.79,1.27c.19.49.28,1.01.28,1.56s-.09,1.07-.28,1.55Z"/>
      <path d="M314.54,81.21h.5c.03.29-.03.54-.18.73-.15.19-.4.35-.75.48l.17.48c.52-.12.91-.33,1.16-.61.25-.29.37-.72.37-1.28v-1.24h-1.27v1.45Z"/>
      <path d="M325.84,75.84c-.53-.11-.97-.23-1.31-.35-.34-.12-.61-.26-.8-.42-.19-.15-.33-.32-.4-.51-.07-.18-.11-.39-.11-.62s.05-.43.15-.62c.1-.19.23-.36.41-.5.18-.14.4-.25.65-.33.25-.08.54-.12.85-.12.5,0,.97.08,1.43.25.46.17.91.43,1.36.8l.64-.84c-.5-.39-1.01-.69-1.54-.88-.53-.2-1.15-.29-1.86-.29-.46,0-.88.07-1.27.2-.39.13-.72.32-1.01.55-.29.24-.51.51-.66.84-.16.32-.23.68-.23,1.07s.06.76.19,1.05c.13.3.33.55.6.77.27.22.61.41,1.02.57.41.16.89.3,1.45.42.51.11.93.23,1.25.35.33.12.58.25.77.4.18.15.31.31.39.49.07.18.11.39.11.62,0,.5-.2.9-.59,1.2-.39.3-.91.46-1.57.46s-1.27-.11-1.78-.34c-.52-.23-1.03-.57-1.53-1.03l-.68.8c.58.52,1.19.91,1.83,1.16.64.25,1.35.37,2.12.37.48,0,.92-.06,1.33-.19.41-.13.75-.31,1.04-.55.29-.24.51-.53.68-.87.16-.34.25-.72.25-1.14,0-.75-.26-1.33-.77-1.76-.51-.42-1.31-.76-2.38-1Z"/>
      <rect x="330.91" y="79.76" width="1.27" height="1.45"/>
      <path d="M338.18,71.47l-4.41,9.74h1.12l1.15-2.56h5.26l1.13,2.56h1.17l-4.41-9.74h-1.02ZM336.46,77.69l2.21-4.93,2.2,4.93h-4.41Z"/>
      <rect x="345.21" y="79.76" width="1.27" height="1.45"/>
      <path d="M360.11,72.92c-.46-.43-1-.77-1.63-1.02-.63-.24-1.32-.37-2.08-.37h-3.36v9.67h3.36c.76,0,1.45-.12,2.08-.37.63-.25,1.17-.59,1.63-1.02s.81-.95,1.06-1.54c.25-.59.37-1.23.37-1.91s-.12-1.32-.37-1.91c-.25-.59-.6-1.1-1.06-1.53ZM360.12,77.89c-.19.46-.46.86-.8,1.21-.35.35-.77.61-1.26.81-.5.19-1.05.29-1.66.29h-2.27v-7.65h2.27c.61,0,1.16.1,1.66.3.5.2.92.47,1.26.82s.61.75.8,1.22c.19.47.28.97.28,1.51s-.09,1.05-.28,1.51Z"/>
      <polygon points="364.94 76.83 370.22 76.83 370.22 75.84 364.94 75.84 364.94 72.53 370.84 72.53 370.84 71.54 363.85 71.54 363.85 81.21 370.91 81.21 370.91 80.22 364.94 80.22 364.94 76.83"/>
      <path d="M383.41,80c-.48.24-1.05.37-1.71.37-.53,0-1.03-.1-1.49-.31-.46-.21-.85-.49-1.19-.85s-.6-.78-.79-1.27c-.19-.49-.28-1.01-.28-1.57s.09-1.08.28-1.57c.19-.48.45-.9.79-1.26.34-.36.73-.64,1.19-.84.46-.2.95-.3,1.49-.3.66,0,1.23.12,1.71.37.47.25.92.57,1.33.95l.75-.8c-.24-.23-.49-.44-.75-.63-.26-.19-.54-.35-.84-.48-.3-.13-.63-.24-.99-.31-.35-.07-.75-.11-1.2-.11-.71,0-1.36.13-1.96.39-.6.26-1.11.62-1.55,1.08-.43.46-.77.99-1.02,1.6-.24.61-.37,1.26-.37,1.95s.12,1.35.37,1.96c.24.61.58,1.14,1.02,1.58.43.45.94.8,1.53,1.06.59.26,1.23.39,1.93.39.44,0,.84-.04,1.2-.12.36-.08.7-.2,1.01-.35.31-.15.61-.32.88-.53.27-.21.53-.44.78-.7l-.72-.7c-.46.44-.93.79-1.41,1.03Z"/>
      <rect x="387.14" y="79.76" width="1.27" height="1.45"/>
      <polygon points="396.46 71.54 393 79.87 389.56 71.54 388.35 71.54 392.5 81.28 393.47 81.28 397.63 71.54 396.46 71.54"/>
      <rect x="397.58" y="79.76" width="1.27" height="1.45"/>
      <path d="M477.62,82.43l-11.49-11.49c-.26-.26-.68-.26-.94,0l-11.03,11.03-11.03-11.03c-.26-.26-.68-.26-.94,0l-11.03,11.03-11.03-11.03c-.26-.26-.68-.26-.94,0l-11.5,11.49c-.26.26-.26.68,0,.94.26.26.68.26.94,0l11.03-11.03,11.03,11.03c.26.26.68.26.94,0l11.03-11.03,11.03,11.03c.13.13.3.19.47.19s.34-.06.47-.19l11.03-11.03,11.03,11.03c.26.26.68.26.94,0s.26-.68,0-.94Z"/>
      <path d="M13.86,33.83v17.89c0,11.48,9.34,20.83,20.83,20.83s20.83-9.34,20.83-20.83v-17.89c0-11.48-9.34-20.83-20.83-20.83s-20.83,9.34-20.83,20.83ZM19.17,51.72v-17.89c0-6.44,3.95-11.98,9.55-14.32-4.05,8.16-2.69,18.35,4.1,25.14,6.17,6.17,6.41,16.05.75,22.53-8.03-.58-14.4-7.28-14.4-15.46ZM50.21,33.83v17.89c0,6.44-3.95,11.98-9.55,14.32,4.05-8.17,2.7-18.35-4.1-25.14-6.17-6.17-6.41-16.05-.75-22.53,8.03.58,14.4,7.28,14.4,15.46Z"/>
      <path d="M64.07,32c0,1.47,1.19,2.65,2.65,2.65s2.65-1.19,2.65-2.65C69.38,14.36,55.02,0,37.38,0h-5.37C14.36,0,0,14.36,0,32v21.54c0,17.65,14.36,32,32,32h5.37c17.65,0,32-14.36,32-32,0-1.47-1.19-2.65-2.65-2.65s-2.65,1.19-2.65,2.65c0,14.72-11.98,26.7-26.7,26.7h-5.37c-14.72,0-26.7-11.98-26.7-26.7v-21.54c0-14.72,11.98-26.7,26.7-26.7h5.37c14.72,0,26.7,11.98,26.7,26.7Z"/>
      <polygon points="415.03 82.8 424.31 82.8 419.67 78.17 415.03 82.8"/>
      <polygon points="438.03 82.8 447.3 82.8 442.66 78.17 438.03 82.8"/>
      <polygon points="461.02 82.8 470.29 82.8 465.66 78.17 461.02 82.8"/>
    </g>
  </g>
</svg>