<?xml version="1.0" encoding="UTF-8"?>
<svg id="Capa_2" data-name="Capa 2" xmlns="http://www.w3.org/2000/svg" viewBox="0 0 385.4 80.91">
  <g id="Capa_1-2" data-name="Capa 1">
    <g>
      <path d="M12.5,52.56c3.96,2.17,8.59,3.26,13.88,3.26,2.66,0,5.19-.43,7.6-1.29,2.41-.86,4.62-1.91,6.63-3.17,2.01-1.25,3.74-2.48,5.18-3.67v-4.96h-1.9c-1.57,1.29-3.11,2.48-4.62,3.58-1.52,1.09-3.13,1.97-4.85,2.65-1.71.67-3.65,1.01-5.81,1.01-6.48,0-11.44-1.98-14.87-5.94-3.43-3.96-5.14-9.83-5.14-17.61,0-7.35,1.6-12.82,4.81-16.41,3.21-3.59,7.35-5.38,12.45-5.38,2.14,0,4.11.22,5.92.65s3.5,1.05,5.07,1.84c.42.2.82.44,1.19.71.37.27.6.61.67,1.01l1.45,7.64h4.36V2.83c-1.44-.37-3.22-.77-5.35-1.19-2.12-.42-4.3-.79-6.54-1.1-2.24-.31-4.27-.47-6.11-.47-5.09,0-9.64,1.15-13.64,3.45-4,2.3-7.15,5.55-9.45,9.75C1.15,17.46,0,22.4,0,28.06s1.09,10.87,3.28,15.02c2.18,4.15,5.26,7.31,9.22,9.48Z"/>
      <path d="M83.47,54.67h19.75v-2.8l-3.95-1.57c-.4-.15-.75-.43-1.06-.84-.31-.41-.55-.81-.73-1.21L78.66.41h-4.21l-4.4,8.91-15.17,38.83c-.35.95-.98,1.63-1.9,2.05l-3.8,1.68v2.8h16.73v-2.8l-6.34-2.35,5.13-13.6h19.63l5.38,13.79-6.26,2.16v2.8ZM66.67,30.74l7.63-20.23h.63l1.45,5.03,5.93,15.2h-15.65Z"/>
      <path d="M143.95,47.64c1.42-2.45,2.12-5.02,2.12-7.73s-.49-4.79-1.47-6.54c-.98-1.75-2.24-3.18-3.76-4.3-1.53-1.12-3.12-2.02-4.79-2.72-2.26-.94-4.35-1.74-6.26-2.38-1.91-.65-3.86-1.33-5.85-2.05-3.01-1.12-5.04-2.52-6.09-4.19-1.06-1.68-1.59-3.48-1.59-5.42,0-2.16.98-3.99,2.93-5.48,1.95-1.49,4.69-2.24,8.22-2.24,1.17,0,2.26.11,3.28.33,1.02.23,1.94.52,2.78.88.83.36,1.53.75,2.11,1.17.3.2.63.47,1.01.8.37.33.6.68.67,1.02l1.49,7.3h4.36V2.42c-1.52-.37-3.11-.75-4.79-1.12-1.68-.37-3.44-.68-5.29-.93-1.85-.25-3.8-.37-5.83-.37-3.38,0-6.43.65-9.17,1.96-2.73,1.3-4.9,3.08-6.5,5.33-1.6,2.25-2.4,4.81-2.4,7.69,0,3.21.86,5.94,2.57,8.2,1.72,2.26,4.08,4.01,7.08,5.25,1.99.82,4.02,1.55,6.09,2.18,2.08.63,4.18,1.4,6.32,2.29,2.21.92,3.97,2.1,5.29,3.54,1.32,1.44,1.97,3.27,1.97,5.48,0,2.93-1.11,5.24-3.32,6.93-2.21,1.69-5.25,2.53-9.13,2.53-1.32,0-2.6-.17-3.86-.5-1.25-.33-2.44-.77-3.56-1.32-1.12-.55-2.15-1.12-3.09-1.72-.27-.2-.6-.47-.99-.82-.38-.35-.61-.69-.69-1.04l-1.57-7.71h-4.4l.23,14.27c1.94.52,3.9,1.04,5.89,1.57,1.99.52,3.94.96,5.85,1.31,1.91.35,3.73.52,5.44.52,4.94,0,8.94-.77,12-2.31,3.05-1.54,5.29-3.53,6.71-5.98Z"/>
      <path d="M192.87,48.7c-.08.45-.25.8-.54,1.04-.29.25-.62.37-.99.37h-21.95v-20.98h11.44c.5,0,.86.12,1.1.35.24.24.4.59.51,1.06l1.34,5.85h3.58v-19.04h-3.58l-1.34,5.89c-.1.47-.27.81-.51,1.02-.24.21-.6.32-1.1.32h-11.44V5.78h19.04c.42,0,.77.12,1.04.35.27.24.46.58.56,1.02l1.45,7.34h4.4V1.23h-41.47v2.72l5.74,1.9c.4.12.73.32,1.01.6.27.27.41.67.41,1.19v40.54c0,.55-.13.96-.39,1.25-.26.29-.6.49-1.02.62l-5.74,1.82v2.8h44.31v-14.16h-4.36l-1.49,8.2Z"/>
      <path d="M259.4,49.43c-.29.29-.64.49-1.06.62l-5.66,1.82v2.8h22.06v-2.8l-5.66-1.82c-.45-.15-.81-.36-1.08-.63-.27-.27-.41-.68-.41-1.23V7.64c0-.49.15-.89.45-1.17.3-.28.65-.49,1.04-.61l5.66-1.9V1.23h-18.93l-14.42,41.77h-.6l-1.86-6.49L226.44,1.23h-19.19v2.72l5.74,1.9c.42.12.76.32,1.02.6.26.27.39.67.39,1.19v40.32c0,.52-.14.93-.41,1.21-.27.29-.61.49-1.01.61l-5.74,2.09v2.8h19.27v-2.8l-5.63-2.09c-.4-.15-.73-.36-1.01-.61-.27-.26-.41-.67-.41-1.21V5.29h.6l1.72,5.55,15.54,43.82h3.8l3.54-8.27,12.7-35.58,1.75-5.52h.71v42.89c0,.55-.15.96-.43,1.25Z"/>
      <path d="M327.32,40.5h-4.36l-1.49,8.2c-.08.45-.26.8-.54,1.04-.28.25-.61.37-.99.37h-21.95v-20.98h11.44c.49,0,.86.12,1.1.35s.4.59.5,1.06l1.34,5.85h3.58v-19.04h-3.58l-1.34,5.89c-.1.47-.27.81-.5,1.02-.24.21-.6.32-1.1.32h-11.44V5.78h19.04c.42,0,.77.12,1.04.35.27.24.46.58.56,1.02l1.45,7.34h4.4V1.23h-41.47v2.72l5.74,1.9c.4.12.73.32,1.01.6.27.27.41.67.41,1.19v40.54c0,.55-.13.96-.39,1.25-.26.29-.6.49-1.03.62l-5.74,1.82v2.8h44.31v-14.16Z"/>
      <path d="M349.94,51.87l-4.81-2.31,12.78-17.85h.22l2.35,4.29,9.32,13.71-5.03,2.16v2.8h19.97v-2.8l-4.32-1.53c-.4-.12-.8-.37-1.19-.75-.4-.37-.76-.8-1.08-1.27l-14.76-21.61,14.27-19.15c.35-.47.75-.9,1.19-1.29.45-.38.84-.64,1.19-.76l4.14-1.57V1.23h-16.51v2.72l4.81,2.39-12.22,17.29h-.22l-2.31-4.4-8.98-13.08,4.99-2.2V1.23h-20.01v2.72l4.4,1.57c.42.15.84.41,1.25.78.41.37.75.77,1.02,1.19l14.35,21.09-14.8,19.67c-.32.42-.69.85-1.12,1.27-.42.42-.86.71-1.3.86l-4.47,1.49v2.8h16.88v-2.8Z"/>
      <path d="M6.59,77.35c-.48.24-1.05.37-1.71.37-.53,0-1.03-.1-1.49-.31-.46-.21-.85-.49-1.19-.85-.34-.36-.6-.78-.79-1.27-.19-.49-.28-1.01-.28-1.57s.09-1.08.28-1.57c.19-.48.45-.9.79-1.26.34-.36.73-.64,1.19-.84.46-.2.95-.3,1.49-.3.66,0,1.23.12,1.71.37.47.25.92.57,1.33.95l.75-.8c-.24-.23-.49-.44-.75-.63-.26-.19-.54-.35-.84-.48-.3-.13-.63-.24-.99-.31-.35-.07-.75-.11-1.2-.11-.71,0-1.36.13-1.96.39-.6.26-1.11.62-1.55,1.08-.43.46-.77.99-1.02,1.6-.24.61-.37,1.26-.37,1.95s.12,1.35.37,1.96c.24.61.58,1.14,1.02,1.58.43.45.94.8,1.53,1.06.59.26,1.23.39,1.93.39.44,0,.84-.04,1.2-.12.36-.08.7-.2,1.01-.35.31-.15.61-.32.88-.53.27-.21.53-.44.78-.7l-.72-.7c-.46.44-.93.79-1.41,1.03Z"/>
      <path d="M14.2,68.82l-4.41,9.74h1.12l1.15-2.56h5.26l1.13,2.56h1.17l-4.41-9.74h-1.02ZM12.49,75.03l2.21-4.93,2.2,4.93h-4.41Z"/>
      <polygon points="21.54 78.56 22.63 78.56 22.63 74.34 27.87 74.34 27.87 73.35 22.63 73.35 22.63 69.89 28.49 69.89 28.49 68.89 21.54 68.89 21.54 78.56"/>
      <polygon points="34.2 68.03 35.76 66.54 34.65 66.03 33.34 68.03 34.2 68.03"/>
      <polygon points="31.7 74.18 36.97 74.18 36.97 73.18 31.7 73.18 31.7 69.88 37.6 69.88 37.6 68.89 30.6 68.89 30.6 78.56 37.66 78.56 37.66 77.56 31.7 77.56 31.7 74.18"/>
      <path d="M43.33,73.19c-.53-.11-.97-.23-1.31-.35-.34-.12-.61-.26-.8-.42-.19-.15-.33-.32-.4-.51-.07-.18-.11-.39-.11-.62s.05-.43.15-.62c.1-.19.23-.36.41-.5.18-.14.4-.25.65-.33.25-.08.54-.12.85-.12.5,0,.97.08,1.43.25.46.17.91.43,1.36.8l.64-.84c-.5-.39-1.01-.69-1.54-.88-.53-.2-1.15-.29-1.86-.29-.46,0-.88.07-1.27.2-.39.13-.72.32-1.01.55s-.51.51-.66.84c-.16.32-.23.68-.23,1.07s.06.76.19,1.05c.13.3.33.55.6.77.27.22.61.41,1.02.57.41.16.89.3,1.45.42.51.11.93.23,1.25.35.33.12.58.25.77.4.18.15.31.31.39.49.07.18.11.39.11.62,0,.5-.2.9-.59,1.2-.39.3-.91.46-1.57.46s-1.27-.11-1.78-.34c-.52-.23-1.03-.57-1.53-1.03l-.68.8c.58.52,1.19.91,1.83,1.16.64.25,1.35.37,2.12.37.48,0,.92-.06,1.33-.19.41-.13.75-.31,1.04-.55.29-.24.51-.53.68-.87.16-.34.25-.72.25-1.14,0-.75-.26-1.33-.77-1.76-.51-.42-1.31-.76-2.38-1Z"/>
      <polygon points="56.43 73.72 53.18 68.89 51.85 68.89 55.88 74.73 55.88 78.56 56.97 78.56 56.97 74.72 60.99 68.89 59.72 68.89 56.43 73.72"/>
      <path d="M70.36,73.19c-.53-.11-.97-.23-1.31-.35-.34-.12-.61-.26-.8-.42-.19-.15-.33-.32-.4-.51-.07-.18-.11-.39-.11-.62s.05-.43.15-.62c.1-.19.23-.36.41-.5.18-.14.4-.25.65-.33.25-.08.54-.12.85-.12.5,0,.97.08,1.43.25.46.17.91.43,1.36.8l.64-.84c-.5-.39-1.01-.69-1.54-.88-.53-.2-1.15-.29-1.86-.29-.46,0-.88.07-1.27.2-.39.13-.72.32-1.01.55-.29.24-.51.51-.66.84-.16.32-.23.68-.23,1.07s.06.76.19,1.05c.13.3.33.55.6.77.27.22.61.41,1.02.57.41.16.89.3,1.45.42.51.11.93.23,1.25.35.33.12.58.25.77.4.18.15.31.31.39.49.07.18.11.39.11.62,0,.5-.2.9-.59,1.2-.39.3-.91.46-1.57.46s-1.27-.11-1.78-.34c-.52-.23-1.03-.57-1.53-1.03l-.68.8c.58.52,1.19.91,1.83,1.16.64.25,1.35.37,2.12.37.48,0,.92-.06,1.33-.19.41-.13.75-.31,1.04-.55.29-.24.51-.53.68-.87.16-.34.25-.72.25-1.14,0-.75-.26-1.33-.77-1.76-.51-.42-1.31-.76-2.38-1Z"/>
      <polygon points="76.82 74.18 82.1 74.18 82.1 73.18 76.82 73.18 76.82 69.88 82.72 69.88 82.72 68.89 75.73 68.89 75.73 78.56 82.79 78.56 82.79 77.56 76.82 77.56 76.82 74.18"/>
      <polygon points="89.62 74.16 86.09 68.89 84.99 68.89 84.99 78.56 86.05 78.56 86.05 70.74 89.57 75.91 89.63 75.91 93.15 70.72 93.15 78.56 94.25 78.56 94.25 68.89 93.14 68.89 89.62 74.16"/>
      <rect x="97.08" y="68.89" width="1.09" height="9.67"/>
      <polygon points="102.09 68.89 101 68.89 101 78.56 107.54 78.56 107.54 77.55 102.09 77.55 102.09 68.89"/>
      <polygon points="110.65 68.89 109.55 68.89 109.55 78.56 116.09 78.56 116.09 77.55 110.65 77.55 110.65 68.89"/>
      <path d="M121.69,68.82l-4.41,9.74h1.12l1.15-2.56h5.26l1.13,2.56h1.17l-4.41-9.74h-1.02ZM119.97,75.03l2.21-4.93,2.2,4.93h-4.41Z"/>
      <path d="M132.3,73.19c-.53-.11-.97-.23-1.31-.35-.34-.12-.61-.26-.8-.42-.19-.15-.33-.32-.4-.51-.07-.18-.11-.39-.11-.62s.05-.43.15-.62c.1-.19.23-.36.41-.5.18-.14.4-.25.65-.33.25-.08.54-.12.85-.12.5,0,.97.08,1.43.25.46.17.91.43,1.36.8l.64-.84c-.5-.39-1.01-.69-1.54-.88-.53-.2-1.15-.29-1.86-.29-.46,0-.88.07-1.27.2-.39.13-.72.32-1.01.55-.29.24-.51.51-.66.84-.16.32-.23.68-.23,1.07s.06.76.19,1.05c.13.3.33.55.6.77.27.22.61.41,1.02.57.41.16.89.3,1.45.42.51.11.93.23,1.25.35.33.12.58.25.77.4.18.15.31.31.39.49.07.18.11.39.11.62,0,.5-.2.9-.59,1.2-.39.3-.91.46-1.57.46s-1.27-.11-1.78-.34c-.52-.23-1.03-.57-1.53-1.03l-.68.8c.58.52,1.19.91,1.83,1.16.64.25,1.35.37,2.12.37.48,0,.92-.06,1.33-.19.41-.13.75-.31,1.04-.55.29-.24.51-.53.68-.87.16-.34.25-.72.25-1.14,0-.75-.26-1.33-.77-1.76-.51-.42-1.31-.76-2.38-1Z"/>
      <path d="M148.88,70.27c-.46-.43-1-.77-1.63-1.02-.63-.24-1.32-.37-2.08-.37h-3.36v9.67h3.36c.76,0,1.45-.12,2.08-.37.63-.25,1.17-.59,1.63-1.02.46-.43.81-.95,1.06-1.54.25-.59.37-1.23.37-1.91s-.12-1.32-.37-1.91c-.25-.59-.6-1.1-1.06-1.53ZM148.9,75.24c-.19.46-.46.86-.8,1.21-.35.35-.77.61-1.26.81-.5.19-1.05.29-1.66.29h-2.27v-7.65h2.27c.61,0,1.16.1,1.66.3.5.2.92.47,1.26.82s.61.75.8,1.22c.19.47.28.97.28,1.51s-.09,1.05-.28,1.51Z"/>
      <polygon points="153.71 74.18 158.99 74.18 158.99 73.18 153.71 73.18 153.71 69.88 159.61 69.88 159.61 68.89 152.62 68.89 152.62 78.56 159.68 78.56 159.68 77.56 153.71 77.56 153.71 74.18"/>
      <polygon points="170.65 74.16 167.13 68.89 166.02 68.89 166.02 78.56 167.09 78.56 167.09 70.74 170.61 75.91 170.67 75.91 174.19 70.72 174.19 78.56 175.28 78.56 175.28 68.89 174.18 68.89 170.65 74.16"/>
      <polygon points="182.07 66.03 180.75 68.03 181.61 68.03 183.17 66.54 182.07 66.03"/>
      <polygon points="179.11 74.18 184.39 74.18 184.39 73.18 179.11 73.18 179.11 69.88 185.01 69.88 185.01 68.89 178.02 68.89 178.02 78.56 185.08 78.56 185.08 77.56 179.11 77.56 179.11 74.18"/>
      <polygon points="195.15 68.89 193.88 68.89 190.94 72.84 187.96 68.89 186.68 68.89 190.26 73.63 186.54 78.56 187.8 78.56 190.89 74.4 193.99 78.56 195.29 78.56 191.57 73.61 195.15 68.89"/>
      <rect x="197.39" y="68.89" width="1.09" height="9.67"/>
      <path d="M207.47,77.35c-.48.24-1.05.37-1.71.37-.53,0-1.03-.1-1.49-.31-.46-.21-.85-.49-1.19-.85s-.6-.78-.79-1.27c-.19-.49-.28-1.01-.28-1.57s.09-1.08.28-1.57c.19-.48.45-.9.79-1.26.34-.36.73-.64,1.19-.84.46-.2.95-.3,1.49-.3.66,0,1.23.12,1.71.37.47.25.92.57,1.33.95l.75-.8c-.24-.23-.49-.44-.75-.63-.26-.19-.54-.35-.84-.48s-.63-.24-.99-.31c-.35-.07-.75-.11-1.2-.11-.71,0-1.36.13-1.96.39-.6.26-1.11.62-1.55,1.08-.43.46-.77.99-1.02,1.6-.24.61-.37,1.26-.37,1.95s.12,1.35.37,1.96c.24.61.58,1.14,1.02,1.58.43.45.94.8,1.53,1.06.59.26,1.23.39,1.93.39.44,0,.84-.04,1.2-.12.36-.08.7-.2,1.01-.35.31-.15.61-.32.88-.53.27-.21.53-.44.78-.7l-.72-.7c-.46.44-.93.79-1.41,1.03Z"/>
      <path d="M219.32,70.21c-.43-.46-.95-.82-1.55-1.08-.6-.27-1.27-.4-2.01-.4s-1.41.14-2.02.41c-.61.27-1.13.64-1.56,1.1-.43.46-.77.99-1.01,1.6-.24.6-.36,1.24-.36,1.91s.12,1.31.35,1.91c.23.6.57,1.13,1,1.59s.95.82,1.55,1.08c.6.27,1.27.4,2.01.4s1.41-.14,2.02-.41c.61-.27,1.13-.64,1.56-1.1.43-.46.77-.99,1.01-1.6.24-.6.36-1.24.36-1.91s-.12-1.31-.35-1.91c-.23-.6-.57-1.13-1-1.59ZM219.25,75.29c-.19.48-.45.9-.78,1.26-.33.36-.73.64-1.2.85-.47.21-.97.31-1.53.31s-1.06-.11-1.53-.32c-.47-.21-.87-.5-1.21-.86s-.61-.78-.79-1.27c-.19-.49-.28-1.01-.28-1.56s.09-1.07.28-1.55c.19-.48.45-.9.78-1.26.33-.36.73-.64,1.2-.85.47-.21.97-.31,1.53-.31s1.06.11,1.53.32c.47.21.87.5,1.21.86.34.36.61.78.79,1.27.19.49.28,1.01.28,1.56s-.09,1.07-.28,1.55Z"/>
      <path d="M222.12,78.56h.5c.03.29-.03.54-.18.73-.15.19-.4.35-.75.48l.17.48c.52-.12.91-.32,1.16-.61.25-.29.37-.72.37-1.28v-1.24h-1.27v1.45Z"/>
      <path d="M233.42,73.19c-.53-.11-.97-.23-1.31-.35-.34-.12-.61-.26-.8-.42-.19-.15-.33-.32-.4-.51-.07-.18-.11-.39-.11-.62s.05-.43.15-.62c.1-.19.23-.36.41-.5.18-.14.4-.25.65-.33.25-.08.54-.12.85-.12.5,0,.97.08,1.43.25.46.17.91.43,1.36.8l.64-.84c-.5-.39-1.01-.69-1.54-.88-.53-.2-1.15-.29-1.86-.29-.46,0-.88.07-1.27.2-.39.13-.72.32-1.01.55-.29.24-.51.51-.66.84-.16.32-.23.68-.23,1.07s.06.76.19,1.05c.13.3.33.55.6.77.27.22.61.41,1.02.57.41.16.89.3,1.45.42.51.11.93.23,1.25.35.33.12.58.25.77.4.18.15.31.31.39.49.07.18.11.39.11.62,0,.5-.2.9-.59,1.2-.39.3-.91.46-1.57.46s-1.27-.11-1.78-.34c-.52-.23-1.03-.57-1.53-1.03l-.68.8c.58.52,1.19.91,1.83,1.16.64.25,1.35.37,2.12.37.48,0,.92-.06,1.33-.19.41-.13.75-.31,1.04-.55.29-.24.51-.53.68-.87.16-.34.25-.72.25-1.14,0-.75-.26-1.33-.77-1.76-.51-.42-1.31-.76-2.38-1Z"/>
      <rect x="238.49" y="77.11" width="1.27" height="1.45"/>
      <path d="M245.76,68.82l-4.41,9.74h1.12l1.15-2.56h5.26l1.13,2.56h1.17l-4.41-9.74h-1.02ZM244.05,75.03l2.21-4.93,2.2,4.93h-4.41Z"/>
      <rect x="252.79" y="77.11" width="1.27" height="1.45"/>
      <path d="M267.7,70.27c-.46-.43-1-.77-1.63-1.02-.63-.24-1.32-.37-2.08-.37h-3.36v9.67h3.36c.76,0,1.45-.12,2.08-.37.63-.25,1.17-.59,1.63-1.02.46-.43.81-.95,1.06-1.54.25-.59.37-1.23.37-1.91s-.12-1.32-.37-1.91c-.25-.59-.6-1.1-1.06-1.53ZM267.71,75.24c-.19.46-.46.86-.8,1.21-.35.35-.77.61-1.26.81-.5.19-1.05.29-1.66.29h-2.27v-7.65h2.27c.61,0,1.16.1,1.66.3s.92.47,1.26.82.61.75.8,1.22c.19.47.28.97.28,1.51s-.09,1.05-.28,1.51Z"/>
      <polygon points="272.52 74.18 277.8 74.18 277.8 73.18 272.52 73.18 272.52 69.88 278.42 69.88 278.42 68.89 271.43 68.89 271.43 78.56 278.49 78.56 278.49 77.56 272.52 77.56 272.52 74.18"/>
      <path d="M291,77.35c-.48.24-1.05.37-1.71.37-.53,0-1.03-.1-1.49-.31-.46-.21-.85-.49-1.19-.85s-.6-.78-.79-1.27c-.19-.49-.28-1.01-.28-1.57s.09-1.08.28-1.57c.19-.48.45-.9.79-1.26.34-.36.73-.64,1.19-.84.46-.2.95-.3,1.49-.3.66,0,1.23.12,1.71.37.47.25.92.57,1.33.95l.75-.8c-.24-.23-.49-.44-.75-.63-.26-.19-.54-.35-.84-.48s-.63-.24-.99-.31c-.35-.07-.75-.11-1.2-.11-.71,0-1.36.13-1.96.39-.6.26-1.11.62-1.55,1.08s-.77.99-1.02,1.6c-.24.61-.37,1.26-.37,1.95s.12,1.35.37,1.96c.24.61.58,1.14,1.02,1.58.43.45.94.8,1.53,1.06.59.26,1.23.39,1.93.39.44,0,.84-.04,1.2-.12.36-.08.7-.2,1.01-.35.31-.15.61-.32.88-.53.27-.21.53-.44.78-.7l-.72-.7c-.46.44-.93.79-1.41,1.03Z"/>
      <rect x="294.73" y="77.11" width="1.27" height="1.45"/>
      <polygon points="304.04 68.89 300.59 77.22 297.15 68.89 295.93 68.89 300.09 78.63 301.06 78.63 305.22 68.89 304.04 68.89"/>
      <rect x="305.16" y="77.11" width="1.27" height="1.45"/>
      <path d="M385.21,79.77l-11.49-11.49c-.26-.26-.68-.26-.94,0l-11.03,11.03-11.03-11.03c-.26-.26-.68-.26-.94,0l-11.03,11.03-11.03-11.03c-.26-.26-.68-.26-.94,0l-11.5,11.49c-.26.26-.26.68,0,.94s.68.26.94,0l11.03-11.03,11.03,11.03c.26.26.68.26.94,0l11.03-11.03,11.03,11.03c.13.13.3.19.47.19s.34-.06.47-.19l11.03-11.03,11.03,11.03c.26.26.68.26.94,0,.26-.26.26-.68,0-.94Z"/>
      <polygon points="322.62 80.15 331.9 80.15 327.26 75.51 322.62 80.15"/>
      <polygon points="345.61 80.15 354.89 80.15 350.25 75.51 345.61 80.15"/>
      <polygon points="368.6 80.15 377.88 80.15 373.24 75.51 368.6 80.15"/>
    </g>
  </g>
</svg>