<?xml version="1.0" encoding="utf-8"?>
<!-- Generator: Adobe Illustrator 14.0.0, SVG Export Plug-In . SVG Version: 6.00 Build 43363)  -->
<!DOCTYPE svg PUBLIC "-//W3C//DTD SVG 1.1//EN" "http://www.w3.org/Graphics/SVG/1.1/DTD/svg11.dtd">
<svg version="1.1" id="Layer_1" xmlns="http://www.w3.org/2000/svg" xmlns:xlink="http://www.w3.org/1999/xlink" x="0px" y="0px"
	 width="250px" height="250px" viewBox="0 0 250 250" enable-background="new 0 0 250 250" xml:space="preserve">
<g>
	<path fill="#5F9331" d="M137.27,78.953c3.519-0.054,7.827,4.682,11.717,8.204c3.239-6.597,9.836-9.781,16.592-10.487
		c-4.737-2.365-10.479,0.508-14.564,3.215c-5.241,3.242-9.318-4.255-14.528-3.44c-1.778,0.284-3.922,1.918-3.751,3.778
		C132.734,80.223,133.752,79.011,137.27,78.953"/>
	<path fill="#5F9331" d="M124.961,15.455c-60.384,0-109.337,48.93-109.337,109.33c0,60.401,48.953,109.331,109.337,109.331
		c60.388,0,109.341-48.93,109.341-109.331C234.303,64.385,185.35,15.455,124.961,15.455 M215.433,87.468L73.67,125.344
		c-2.197-3.122-4.644-6.057-7.376-8.706L177.66,42.37C194.45,53.109,207.744,68.834,215.433,87.468z M124.961,26.925
		c18,0,34.871,4.903,49.345,13.387L59.538,110.947c-3.774-2.733-7.89-5.048-12.254-6.85l52.052-73.733
		C107.528,28.136,116.094,26.925,124.961,26.925z M93.527,32.139l-53.201,69.59c-3.208-0.846-6.562-1.467-10.002-1.805
		C38.695,68.104,62.604,42.622,93.527,32.139z M156.505,204.178l0.621,0.825l7.303,8.96c-4.084-2.562-8.149-6.601-11.862-10.623
		c-10.172-2.064-19.832-5.109-29.298-9.334l-1.149-0.504c2.197,8.457,4.984,21.16,3.688,28.103
		c-1.18-9.987-3.968-19.926-6.336-29.602c-5.296-2.733-15.749-8.877-23.545-12.082v1.855c0.847,12.37,2.446,25.424-3.805,35.768
		c3.378-12.2,2.027-26.41,1.18-38.951c-6.445-3.722-15.01-5.864-22.333-7.922l-0.023,1.833c-1.359,9.294-4.566,18.287-12.681,24.375
		c4.566-7.634,11.718-17.052,10.033-26.853c-7.944-3.557-17.667-3.277-26.954-3.277c18.078-4.644,32.165,6.089,47.036-2.732
		c0.956-0.591,1.887-0.645,2.873-0.839c-4.566,3.743-9.916,5.436-15.887,6.111c9.629,2.539,21.036,9.42,29.26,6.087l14.568-4.564
		c-4.737,3.89-12.681,5.754-19.468,7.781l20.819,10.878c9.993-2.197,20.167-5.436,29.655-8.82
		c-7.804,5.916-17.635,7.269-26.417,10.483c11.998,5.745,28.25,14.21,41.797,6.088c6.104-2.197,11.523-5.777,17.132-9.303
		c-6.121,6.601-13.699,10.715-21.635,13.418l-1.927,0.847l27.102-0.055C179.354,205.033,166.169,203.845,156.505,204.178z
		 M214.951,163.224c-2.672,5.785-6.43,11.081-12.503,14.382c-31.294,12.207-58.703-10.344-87.994-16.121
		c-24.95-6.398-55.678-9.302-78.858,3.123c-0.287-0.646-0.59-1.268-0.846-1.911c20.338-11.104,44.954-10.173,69.571-10.514
		l114.917-1.182C218.072,155.195,216.674,159.279,214.951,163.224z M82.74,146.094c-1.125-5.048-2.873-9.839-5.179-14.258
		l139.332-40.622c3.836,10.456,5.917,21.759,5.917,33.57c0,7.44-0.838,14.684-2.423,21.651L82.74,146.094z"/>
</g>
</svg>
